<svg xmlns="http://www.w3.org/2000/svg" width="760" height="460" viewBox="0 0 760 460">
  <rect width="760" height="460" fill="#ffffff"/>
  <text x="380" y="32" text-anchor="middle" font-family="Arial, sans-serif" font-size="22" font-weight="700">!E>48<>ABL EM-0;3>@8B<0</text>
  <line x1="70" y1="340" x2="690" y2="340" stroke="#222" stroke-width="1.5"/>
  <line x1="70" y1="60" x2="70" y2="340" stroke="#222" stroke-width="1.5"/>
  <g font-family="Arial, sans-serif" font-size="12" fill="#333">
    <text x="70" y="365" text-anchor="middle">1</text>
    <text x="225" y="365" text-anchor="middle">10</text>
    <text x="380" y="365" text-anchor="middle">20</text>
    <text x="535" y="365" text-anchor="middle">30</text>
    <text x="690" y="365" text-anchor="middle">41</text>
    <text x="52" y="344" text-anchor="end">-13.3</text>
    <text x="52" y="275" text-anchor="end">-12.8</text>
    <text x="52" y="206" text-anchor="end">-12.3</text>
    <text x="52" y="137" text-anchor="end">-11.8</text>
    <text x="52" y="68" text-anchor="end">-11.3</text>
  </g>
  <g stroke="#d9d9d9" stroke-width="1">
    <line x1="70" y1="275" x2="690" y2="275"/>
    <line x1="70" y1="206" x2="690" y2="206"/>
    <line x1="70" y1="137" x2="690" y2="137"/>
    <line x1="70" y1="68" x2="690" y2="68"/>
  </g>
  <polyline fill="none" stroke="#2f6fdd" stroke-width="3"
    points="70,340 86,222 101,142 117,134 132,133 148,130 163,123 179,121 194,119 210,117 225,112 241,105 256,100 272,80 287,77 303,77 318,76 334,76 349,75 365,73 380,72 396,71 411,70 427,70 442,70 458,69 473,69 489,67 504,64 520,63 535,62 551,61 566,61 582,61 597,60 613,60 628,60 644,60 659,60 675,60 690,60"/>
  <g fill="#2f6fdd">
    <circle cx="70" cy="340" r="3"/><circle cx="86" cy="222" r="3"/><circle cx="101" cy="142" r="3"/>
    <circle cx="272" cy="80" r="3"/><circle cx="535" cy="62" r="3"/><circle cx="690" cy="60" r="3"/>
  </g>
  <text x="380" y="410" text-anchor="middle" font-family="Arial, sans-serif" font-size="15">B5@0F8O</text>
  <text x="20" y="200" transform="rotate(-90 20 200)" text-anchor="middle" font-family="Arial, sans-serif" font-size="15">!@54=89 log-likelihood</text>
</svg>
