<svg xmlns="http://www.w3.org/2000/svg" width="820" height="470" viewBox="0 0 820 470">
  <rect width="820" height="470" fill="#ffffff"/>
  <text x="410" y="34" text-anchor="middle" font-family="Arial, sans-serif" font-size="22" font-weight="700">!@02=5=85 A@54=53> log-likelihood</text>
  <line x1="90" y1="350" x2="760" y2="350" stroke="#222" stroke-width="1.5"/>
  <line x1="90" y1="70" x2="90" y2="350" stroke="#222" stroke-width="1.5"/>
  <g stroke="#d9d9d9" stroke-width="1">
    <line x1="90" y1="310" x2="760" y2="310"/>
    <line x1="90" y1="270" x2="760" y2="270"/>
    <line x1="90" y1="230" x2="760" y2="230"/>
    <line x1="90" y1="190" x2="760" y2="190"/>
    <line x1="90" y1="150" x2="760" y2="150"/>
    <line x1="90" y1="110" x2="760" y2="110"/>
    <line x1="90" y1="70" x2="760" y2="70"/>
  </g>
  <g font-family="Arial, sans-serif" font-size="12" fill="#333">
    <text x="72" y="354" text-anchor="end">-17</text>
    <text x="72" y="314" text-anchor="end">-16</text>
    <text x="72" y="274" text-anchor="end">-15</text>
    <text x="72" y="234" text-anchor="end">-14</text>
    <text x="72" y="194" text-anchor="end">-13</text>
    <text x="72" y="154" text-anchor="end">-12</text>
    <text x="72" y="114" text-anchor="end">-11</text>
    <text x="72" y="74" text-anchor="end">-10</text>
  </g>
  <rect x="205" y="122" width="70" height="228" fill="#4c78a8"/>
  <rect x="285" y="331" width="70" height="19" fill="#f58518"/>
  <rect x="515" y="87" width="70" height="263" fill="#4c78a8"/>
  <rect x="595" y="271" width="70" height="79" fill="#f58518"/>
  <g font-family="Arial, sans-serif" font-size="13" fill="#222">
    <text x="240" y="116" text-anchor="middle">-11.29</text>
    <text x="320" y="325" text-anchor="middle">-16.52</text>
    <text x="550" y="81" text-anchor="middle">-10.41</text>
    <text x="630" y="265" text-anchor="middle">-15.01</text>
    <text x="280" y="386" text-anchor="middle">Custom GaussianMixtureEM</text>
    <text x="590" y="386" text-anchor="middle">sklearn GaussianMixture</text>
  </g>
  <rect x="580" y="415" width="16" height="16" fill="#4c78a8"/>
  <text x="602" y="428" font-family="Arial, sans-serif" font-size="13">Train</text>
  <rect x="650" y="415" width="16" height="16" fill="#f58518"/>
  <text x="672" y="428" font-family="Arial, sans-serif" font-size="13">Test</text>
  <text x="24" y="210" transform="rotate(-90 24 210)" text-anchor="middle" font-family="Arial, sans-serif" font-size="15">!@54=89 log-likelihood</text>
</svg>
